<svg xmlns="http://www.w3.org/2000/svg" viewBox="0 0 512 512"><path fill="#3fb950" d="M256 64Q297 65 324 92Q351 119 352 160V164Q352 176 344 184Q336 192 324 192H188Q176 192 168 184Q160 176 160 164V160Q161 119 188 92Q215 65 256 64ZM41 169Q51 160 64 160Q77 160 87 169L151 233Q152 234 153 235Q153 235 153 236Q174 224 200 224H312Q338 224 360 236Q360 234 361 233L425 169Q435 160 448 160Q461 160 471 169Q480 179 480 192Q480 205 471 215L407 279Q406 280 405 281Q414 299 416 320H480Q494 320 503 329Q512 338 512 352Q512 366 503 375Q494 384 480 384H416Q416 421 401 453Q404 455 407 457L471 521Q480 531 480 544Q480 557 471 567Q461 576 448 576Q435 576 425 567L362 504Q325 537 272 543V304Q271 289 256 288Q241 289 240 304V543Q187 537 150 504L87 567Q77 576 64 576Q51 576 41 567Q32 557 32 544Q32 531 41 521L105 457Q108 455 111 453Q96 421 96 384H32Q18 384 9 375Q0 366 0 352Q0 338 9 329Q18 320 32 320H96Q98 299 107 281Q106 280 105 279L41 215Q32 205 32 192Q32 179 41 169Z"/></svg>